<?xml version="1.0" encoding="UTF-8" standalone="no"?>
<svg
   xmlns:dc="http://purl.org/dc/elements/1.1/"
   xmlns:cc="http://creativecommons.org/ns#"
   xmlns:rdf="http://www.w3.org/1999/02/22-rdf-syntax-ns#"
   xmlns:svg="http://www.w3.org/2000/svg"
   xmlns="http://www.w3.org/2000/svg"
   xmlns:sodipodi="http://sodipodi.sourceforge.net/DTD/sodipodi-0.dtd"
   xmlns:inkscape="http://www.inkscape.org/namespaces/inkscape"
   viewBox="20 20 321 321"
   version="1.1"
   id="svg4115"
   sodipodi:docname="heating_mode-4.svg"
   inkscape:version="0.92.4 (5da689c313, 2019-01-14)">
  <metadata
     id="metadata4121">
    <rdf:RDF>
      <cc:Work
         rdf:about="">
        <dc:format>image/svg+xml</dc:format>
        <dc:type
           rdf:resource="http://purl.org/dc/dcmitype/StillImage" />
      </cc:Work>
    </rdf:RDF>
  </metadata>
  <defs
     id="defs4119" />
  <sodipodi:namedview
     pagecolor="#ffffff"
     bordercolor="#666666"
     borderopacity="1"
     objecttolerance="10"
     gridtolerance="10"
     guidetolerance="10"
     inkscape:pageopacity="0"
     inkscape:pageshadow="2"
     inkscape:window-width="913"
     inkscape:window-height="648"
     id="namedview4117"
     showgrid="false"
     inkscape:zoom="0.73520249"
     inkscape:cx="160.5"
     inkscape:cy="160.5"
     inkscape:window-x="0"
     inkscape:window-y="0"
     inkscape:window-maximized="0"
     inkscape:current-layer="svg4115" />
  <g
     id="g4055"
     style="fill:#000000"
     transform="matrix(1.4426082,0,0,1.4426082,-79.390777,-78.92016)">
    <path
       d="m 180.744,155.583 -0.244,-81 106.801,81 z"
       id="path4047"
       inkscape:connector-curvature="0" />
    <path
       d="m 185.744,155.583 c -0.081,-27 -0.163,-54 -0.244,-81 -2.508,1.439 -5.016,2.878 -7.523,4.317 35.59,26.992 71.18,53.984 106.77,80.976 0.011,0.008 0.021,0.016 0.031,0.024 0.841,-3.106 1.683,-6.211 2.523,-9.317 -35.519,0 -71.038,0 -106.557,0 -6.449,0 -6.449,10 0,10 35.519,0 71.038,0 106.557,0 5.402,0 6.252,-6.489 2.523,-9.317 -35.59,-26.992 -71.18,-53.984 -106.77,-80.976 -0.011,-0.008 -0.021,-0.016 -0.031,-0.024 -3.125,-2.371 -7.534,0.868 -7.523,4.317 0.082,27 0.163,54 0.244,81 0.02,6.448 10.02,6.45 10,0 z"
       id="path4049"
       inkscape:connector-curvature="0" />
    <path
       d="M 180.256,155.583 180.5,74.584 73.699,155.583 Z"
       id="path4051"
       inkscape:connector-curvature="0" />
    <path
       d="m 185.256,155.583 c 0.081,-27 0.163,-54 0.244,-81 0.011,-3.45 -4.397,-6.688 -7.523,-4.317 -35.59,26.992 -71.18,53.984 -106.77,80.976 -0.011,0.008 -0.021,0.016 -0.031,0.023 -3.729,2.828 -2.879,9.317 2.523,9.317 35.519,0 71.038,0 106.557,0 6.448,0 6.448,-10 0,-10 -35.519,0 -71.038,0 -106.557,0 0.841,3.106 1.683,6.211 2.523,9.317 35.59,-26.992 71.18,-53.984 106.77,-80.976 0.011,-0.008 0.021,-0.016 0.031,-0.023 -2.508,-1.439 -5.016,-2.878 -7.523,-4.317 -0.082,27 -0.163,54 -0.244,81 -0.02,6.45 9.98,6.448 10,0 z"
       id="path4053"
       inkscape:connector-curvature="0" />
  </g>
  <path
     d="m 307.94953,323.55021 c 0,5.65358 -5.66513,10.23675 -12.65312,10.23675 H 67.665816 c -6.987994,0 -12.653117,-4.58317 -12.653117,-10.23675 V 136.90412 c 0,-5.65214 252.936831,-5.65214 252.936831,0 z"
     id="path4057"
     inkscape:connector-curvature="0"
     style="fill:none;stroke:#000000;stroke-width:14.42608166" />
  <g
     id="g4113"
     style="fill:#000000"
     transform="matrix(1.4426082,0,0,1.4426082,-79.390777,-78.92016)">
    <path
       d="m 206.236,223.13 c 0,6.322 0,12.646 0,18.968 0,4.514 7,4.514 7,0 0,-6.322 0,-12.646 0,-18.968 0,-4.514 -7,-4.514 -7,0 z"
       id="path4059"
       inkscape:connector-curvature="0" />
    <path
       d="m 202.45,228.062 c 1.843,1.063 3.687,2.128 5.529,3.192 1.653,0.954 3.821,0.396 4.789,-1.256 0.96,-1.639 0.394,-3.836 -1.256,-4.789 -1.843,-1.063 -3.687,-2.128 -5.529,-3.192 -1.653,-0.954 -3.821,-0.396 -4.789,1.256 -0.96,1.638 -0.393,3.835 1.256,4.789 z"
       id="path4061"
       inkscape:connector-curvature="0" />
    <path
       d="m 213.426,222.017 c -1.843,1.064 -3.687,2.129 -5.529,3.192 -1.649,0.953 -2.216,3.15 -1.256,4.789 0.968,1.651 3.136,2.21 4.789,1.256 1.843,-1.064 3.687,-2.129 5.529,-3.192 1.649,-0.953 2.216,-3.15 1.256,-4.789 -0.968,-1.652 -3.136,-2.21 -4.789,-1.256 z"
       id="path4063"
       inkscape:connector-curvature="0" />
    <path
       d="m 191.478,235.417 c 5.476,3.161 10.95,6.322 16.426,9.484 3.917,2.261 7.439,-3.789 3.533,-6.045 -5.476,-3.161 -10.95,-6.322 -16.426,-9.484 -3.917,-2.261 -7.44,3.789 -3.533,6.045 z"
       id="path4065"
       inkscape:connector-curvature="0" />
    <path
       d="m 193.904,241.152 c 1.844,-1.064 3.687,-2.129 5.53,-3.192 1.649,-0.952 2.216,-3.15 1.256,-4.789 -0.968,-1.651 -3.136,-2.21 -4.789,-1.256 -1.844,1.064 -3.687,2.129 -5.53,3.192 -1.649,0.952 -2.216,3.15 -1.256,4.789 0.968,1.652 3.136,2.21 4.789,1.256 z"
       id="path4067"
       inkscape:connector-curvature="0" />
    <path
       d="m 194.126,228.625 c 0,2.128 0,4.257 0,6.385 0,4.514 7,4.514 7,0 0,-2.128 0,-4.257 0,-6.385 0,-4.514 -7,-4.514 -7,0 z"
       id="path4069"
       inkscape:connector-curvature="0" />
    <path
       d="m 195.052,254.372 c 5.476,-3.162 10.952,-6.323 16.428,-9.484 3.907,-2.256 0.384,-8.306 -3.533,-6.045 -5.476,3.162 -10.952,6.323 -16.428,9.484 -3.908,2.256 -0.384,8.306 3.533,6.045 z"
       id="path4071"
       inkscape:connector-curvature="0" />
    <path
       d="m 201.199,255.174 c 0,-2.128 0,-4.256 0,-6.384 0,-4.514 -7,-4.514 -7,0 0,2.128 0,4.256 0,6.384 0,4.514 7,4.514 7,0 z"
       id="path4073"
       inkscape:connector-curvature="0" />
    <path
       d="m 190.444,248.691 c 1.843,1.064 3.687,2.129 5.529,3.193 1.652,0.954 3.821,0.396 4.789,-1.256 0.96,-1.64 0.394,-3.836 -1.256,-4.789 -1.843,-1.064 -3.687,-2.129 -5.529,-3.193 -1.652,-0.954 -3.821,-0.396 -4.789,1.256 -0.959,1.64 -0.393,3.836 1.256,4.789 z"
       id="path4075"
       inkscape:connector-curvature="0" />
    <path
       d="m 213.215,260.902 c 0,-6.322 0,-12.646 0,-18.968 0,-4.514 -7,-4.514 -7,0 0,6.322 0,12.646 0,18.968 0,4.514 7,4.514 7,0 z"
       id="path4077"
       inkscape:connector-curvature="0" />
    <path
       d="m 217.001,255.97 c -1.843,-1.063 -3.687,-2.128 -5.529,-3.192 -1.653,-0.954 -3.821,-0.396 -4.789,1.256 -0.96,1.639 -0.394,3.836 1.256,4.789 1.843,1.063 3.687,2.128 5.529,3.192 1.653,0.954 3.821,0.396 4.789,-1.256 0.96,-1.639 0.393,-3.836 -1.256,-4.789 z"
       id="path4079"
       inkscape:connector-curvature="0" />
    <path
       d="m 206.024,262.015 c 1.844,-1.064 3.687,-2.129 5.53,-3.192 1.649,-0.952 2.216,-3.15 1.256,-4.789 -0.968,-1.651 -3.136,-2.21 -4.789,-1.256 -1.844,1.064 -3.687,2.129 -5.53,3.192 -1.649,0.952 -2.216,3.15 -1.256,4.789 0.968,1.651 3.136,2.21 4.789,1.256 z"
       id="path4081"
       inkscape:connector-curvature="0" />
    <path
       d="m 227.974,248.47 c -5.476,-3.161 -10.951,-6.322 -16.427,-9.484 -3.917,-2.261 -7.44,3.789 -3.533,6.045 5.476,3.161 10.951,6.322 16.427,9.484 3.916,2.26 7.44,-3.789 3.533,-6.045 z"
       id="path4083"
       inkscape:connector-curvature="0" />
    <path
       d="m 225.546,242.735 c -1.843,1.064 -3.687,2.129 -5.529,3.192 -1.649,0.953 -2.216,3.15 -1.256,4.789 0.968,1.651 3.136,2.21 4.789,1.256 1.843,-1.064 3.687,-2.129 5.529,-3.192 1.649,-0.953 2.216,-3.15 1.256,-4.789 -0.968,-1.651 -3.136,-2.21 -4.789,-1.256 z"
       id="path4085"
       inkscape:connector-curvature="0" />
    <path
       d="m 225.325,255.263 c 0,-2.128 0,-4.257 0,-6.385 0,-4.514 -7,-4.514 -7,0 0,2.128 0,4.257 0,6.385 0,4.513 7,4.513 7,0 z"
       id="path4087"
       inkscape:connector-curvature="0" />
    <path
       d="m 224.398,229.516 c -5.476,3.161 -10.951,6.322 -16.427,9.483 -3.907,2.256 -0.384,8.306 3.533,6.045 5.476,-3.161 10.951,-6.322 16.427,-9.483 3.908,-2.256 0.384,-8.306 -3.533,-6.045 z"
       id="path4089"
       inkscape:connector-curvature="0" />
    <path
       d="m 218.252,228.713 c 0,2.128 0,4.257 0,6.385 0,4.514 7,4.514 7,0 0,-2.128 0,-4.257 0,-6.385 0,-4.514 -7,-4.514 -7,0 z"
       id="path4091"
       inkscape:connector-curvature="0" />
    <path
       d="m 229.007,235.195 c -1.843,-1.063 -3.687,-2.128 -5.529,-3.192 -1.653,-0.954 -3.821,-0.396 -4.789,1.256 -0.96,1.639 -0.394,3.836 1.256,4.789 1.843,1.063 3.687,2.128 5.529,3.192 1.653,0.954 3.821,0.396 4.789,-1.256 0.96,-1.638 0.393,-3.836 -1.256,-4.789 z"
       id="path4093"
       inkscape:connector-curvature="0" />
    <path
       d="m 157.777,243.147 c 0.075,-0.257 1.1,-0.124 -0.284,-0.124 -0.803,0 -1.606,0 -2.409,0 -1.762,0 -3.523,0 -5.284,0 -1.614,0 -0.159,1.171 -0.159,0.75 0,-0.631 0,-1.261 0,-1.892 0,-5.728 0,-11.454 0,-17.182 0,-14.65 0,-29.301 0,-43.951 0,-1.392 0,-2.785 0,-4.177 0,-0.42 -1.455,0.75 0.159,0.75 2.062,0 4.123,0 6.185,0 0.682,0 1.364,0 2.046,0 0.998,0 -0.379,-0.708 -0.379,-0.978 0,0.37 0,0.739 0,1.109 0,2.084 0,4.168 0,6.253 0,15.129 0,30.259 0,45.388 0,4.994 0,9.989 0,14.983 0,4.514 7,4.514 7,0 0,-22.578 0,-45.155 0,-67.733 0,-7.834 -10.75,-6.022 -15.739,-6.022 -6.065,0 -6.272,5.512 -6.272,9.914 0,14.516 0,29.032 0,43.547 0,6.707 0,13.415 0,20.122 0,5.096 4.619,6.118 8.667,6.118 5.118,0 11.413,1.15 13.219,-5.015 1.273,-4.341 -5.483,-6.182 -6.75,-1.86 z"
       id="path4095"
       inkscape:connector-curvature="0" />
    <path
       d="m 165.126,264.479 c 0,1.463 -0.93,2.648 -2.077,2.648 h -18.805 c -1.147,0 -2.077,-1.186 -2.077,-2.648 v -15.307 c 0,-1.462 0.93,-2.648 2.077,-2.648 h 18.805 c 1.147,0 2.077,1.187 2.077,2.648 z"
       id="path4097"
       inkscape:connector-curvature="0" />
    <path
       d="m 161.751,263.548 c -0.001,0.009 2.154,0.079 -0.542,0.079 -1.769,0 -3.538,0 -5.307,0 -3.6,0 -7.2,0 -10.799,0 -1.646,0 0.565,1.59 0.565,-0.124 0,-1.642 0,-3.283 0,-4.926 0,-3.113 0,-6.226 0,-9.339 0,0.853 -2.185,0.785 -0.929,0.785 0.65,0 1.3,0 1.949,0 1.866,0 3.732,0 5.599,0 3.423,0 6.846,0 10.269,0 1.256,0 -0.929,0.067 -0.929,-0.785 0,0.472 0,0.942 0,1.414 0,1.764 0,3.527 0,5.292 0,2.845 0,5.689 0,8.534 0,4.514 7,4.514 7,0 0,-4.191 0,-8.384 0,-12.575 0,-3.957 -0.667,-8.88 -5.801,-8.88 -4.658,0 -9.315,0 -13.973,0 -4.321,0 -9.182,-0.322 -10.06,5.218 -0.651,4.114 -0.125,8.628 -0.125,12.781 0,3.96 0.211,9.604 5.634,9.604 4.441,0 8.883,0 13.325,0 4.492,0 9.946,0.646 10.875,-5.218 0.698,-4.414 -6.047,-6.308 -6.751,-1.86 z"
       id="path4099"
       inkscape:connector-curvature="0" />
    <path
       d="m 169.892,182.62 c 2.649,0 5.298,0 7.947,0 4.514,0 4.514,-7 0,-7 -2.649,0 -5.298,0 -7.947,0 -4.514,0 -4.514,7 0,7 z"
       id="path4101"
       inkscape:connector-curvature="0" />
    <path
       d="m 169.892,200.281 c 2.649,0 5.298,0 7.947,0 4.514,0 4.514,-7 0,-7 -2.649,0 -5.298,0 -7.947,0 -4.514,0 -4.514,7 0,7 z"
       id="path4103"
       inkscape:connector-curvature="0" />
    <path
       d="m 169.892,218.383 c 2.649,0 5.298,0 7.947,0 4.514,0 4.514,-7 0,-7 -2.649,0 -5.298,0 -7.947,0 -4.514,0 -4.514,7 0,7 z"
       id="path4105"
       inkscape:connector-curvature="0" />
    <path
       d="m 169.892,237.367 c 2.649,0 5.298,0 7.947,0 4.514,0 4.514,-7 0,-7 -2.649,0 -5.298,0 -7.947,0 -4.514,0 -4.514,7 0,7 z"
       id="path4107"
       inkscape:connector-curvature="0" />
    <path
       d="m 146.141,235.303 h 15.012 v 18.138 h -15.012 z"
       id="path4109"
       inkscape:connector-curvature="0" />
    <path
       d="m 161.152,231.803 c -5.004,0 -10.008,0 -15.012,0 -1.908,0 -3.5,1.592 -3.5,3.5 0,6.046 0,12.092 0,18.138 0,1.908 1.592,3.5 3.5,3.5 5.004,0 10.008,0 15.012,0 1.908,0 3.5,-1.592 3.5,-3.5 0,-6.046 0,-12.092 0,-18.138 0,-4.514 -7,-4.514 -7,0 0,6.046 0,12.092 0,18.138 1.167,-1.167 2.333,-2.333 3.5,-3.5 -5.004,0 -10.008,0 -15.012,0 1.167,1.167 2.333,2.333 3.5,3.5 0,-6.046 0,-12.092 0,-18.138 -1.167,1.167 -2.333,2.333 -3.5,3.5 5.004,0 10.008,0 15.012,0 4.515,0 4.515,-7 0,-7 z"
       id="path4111"
       inkscape:connector-curvature="0" />
  </g>
</svg>
