<?xml version="1.0" encoding="UTF-8" standalone="no"?>
<svg
   xmlns:dc="http://purl.org/dc/elements/1.1/"
   xmlns:cc="http://creativecommons.org/ns#"
   xmlns:rdf="http://www.w3.org/1999/02/22-rdf-syntax-ns#"
   xmlns:svg="http://www.w3.org/2000/svg"
   xmlns="http://www.w3.org/2000/svg"
   xmlns:sodipodi="http://sodipodi.sourceforge.net/DTD/sodipodi-0.dtd"
   xmlns:inkscape="http://www.inkscape.org/namespaces/inkscape"
   viewBox="20 20 321 321"
   version="1.1"
   id="svg3963"
   sodipodi:docname="heating_mode-3.svg"
   inkscape:version="0.92.4 (5da689c313, 2019-01-14)">
  <metadata
     id="metadata3969">
    <rdf:RDF>
      <cc:Work
         rdf:about="">
        <dc:format>image/svg+xml</dc:format>
        <dc:type
           rdf:resource="http://purl.org/dc/dcmitype/StillImage" />
      </cc:Work>
    </rdf:RDF>
  </metadata>
  <defs
     id="defs3967" />
  <sodipodi:namedview
     pagecolor="#ffffff"
     bordercolor="#666666"
     borderopacity="1"
     objecttolerance="10"
     gridtolerance="10"
     guidetolerance="10"
     inkscape:pageopacity="0"
     inkscape:pageshadow="2"
     inkscape:window-width="1022"
     inkscape:window-height="666"
     id="namedview3965"
     showgrid="false"
     inkscape:zoom="0.73520249"
     inkscape:cx="160.5"
     inkscape:cy="160.5"
     inkscape:window-x="118"
     inkscape:window-y="126"
     inkscape:window-maximized="0"
     inkscape:current-layer="svg3963" />
  <g
     id="g3931"
     style="fill:#000000"
     transform="matrix(1.4426082,0,0,1.4426082,-79.390775,-78.920159)">
    <path
       d="m 180.744,155.583 -0.244,-81 106.801,81 z"
       id="path3923"
       inkscape:connector-curvature="0" />
    <path
       d="m 185.744,155.583 c -0.081,-27 -0.163,-54 -0.244,-81 -2.508,1.439 -5.016,2.878 -7.523,4.317 35.59,26.992 71.18,53.984 106.77,80.976 0.011,0.008 0.021,0.016 0.031,0.024 0.841,-3.106 1.683,-6.211 2.523,-9.317 -35.519,0 -71.038,0 -106.557,0 -6.449,0 -6.449,10 0,10 35.519,0 71.038,0 106.557,0 5.402,0 6.252,-6.489 2.523,-9.317 -35.59,-26.992 -71.18,-53.984 -106.77,-80.976 -0.011,-0.008 -0.021,-0.016 -0.031,-0.024 -3.125,-2.371 -7.534,0.868 -7.523,4.317 0.082,27 0.163,54 0.244,81 0.02,6.448 10.02,6.45 10,0 z"
       id="path3925"
       inkscape:connector-curvature="0" />
    <path
       d="M 180.256,155.583 180.5,74.584 73.699,155.583 Z"
       id="path3927"
       inkscape:connector-curvature="0" />
    <path
       d="m 185.256,155.583 c 0.081,-27 0.163,-54 0.244,-81 0.011,-3.45 -4.397,-6.688 -7.523,-4.317 -35.59,26.992 -71.18,53.984 -106.77,80.976 -0.011,0.008 -0.021,0.016 -0.031,0.023 -3.729,2.828 -2.879,9.317 2.523,9.317 35.519,0 71.038,0 106.557,0 6.448,0 6.448,-10 0,-10 -35.519,0 -71.038,0 -106.557,0 0.841,3.106 1.683,6.211 2.523,9.317 35.59,-26.992 71.18,-53.984 106.77,-80.976 0.011,-0.008 0.021,-0.016 0.031,-0.023 -2.508,-1.439 -5.016,-2.878 -7.523,-4.317 -0.082,27 -0.163,54 -0.244,81 -0.02,6.45 9.98,6.448 10,0 z"
       id="path3929"
       inkscape:connector-curvature="0" />
  </g>
  <path
     d="m 307.94952,323.5502 c 0,5.65363 -5.66511,10.23676 -12.65312,10.23676 H 67.665815 c -6.987993,0 -12.653116,-4.58313 -12.653116,-10.23676 V 136.90412 c 0,-5.65213 252.936821,-5.65213 252.936821,0 z"
     id="path3933"
     inkscape:connector-curvature="0"
     style="fill:none;stroke:#000000;stroke-width:14.4260807" />
  <g
     id="g3961"
     style="fill:#000000"
     transform="matrix(1.4426082,0,0,1.4426082,-79.390775,-78.920159)">
    <path
       d="m 129.229,241.23 c -9.98,-18.121 -3.849,-40.477 13.906,-51.05 3.874,-2.307 0.355,-8.36 -3.533,-6.045 -21.063,12.544 -28.233,39.175 -16.417,60.628 2.178,3.955 8.223,0.424 6.044,-3.533 z"
       id="path3935"
       inkscape:connector-curvature="0" />
    <path
       d="m 180.192,254.985 c -18.121,9.98 -40.478,3.85 -51.051,-13.905 -2.307,-3.873 -8.359,-0.354 -6.044,3.533 12.543,21.063 39.175,28.232 60.628,16.417 3.955,-2.177 0.423,-8.223 -3.533,-6.045 z"
       id="path3937"
       inkscape:connector-curvature="0" />
    <path
       d="m 139.493,234.443 c -6.284,-11.433 -9.588,-36.144 3.624,-44.313 3.83,-2.369 0.318,-8.426 -3.533,-6.045 -16.783,10.379 -14.377,38.896 -6.134,53.892 2.173,3.956 8.218,0.424 6.043,-3.534 z"
       id="path3939"
       inkscape:connector-curvature="0" />
    <path
       d="m 180.192,254.985 c -7.233,3.788 -16.067,-0.027 -22.557,-3.663 -7.168,-4.016 -13.91,-9.871 -18.151,-16.962 -2.313,-3.868 -8.367,-0.351 -6.044,3.533 8.809,14.728 32.576,32.409 50.286,23.137 4,-2.094 0.461,-8.135 -3.534,-6.045 z"
       id="path3941"
       inkscape:connector-curvature="0" />
    <g
       id="g3959"
       style="stroke:#000000">
      <path
         d="m 163.598,199.94 c 0,0.759 -0.616,1.375 -1.375,1.375 -0.76,0 -1.375,-0.616 -1.375,-1.375 0,-0.76 0.615,-1.375 1.375,-1.375 0.758,0 1.375,0.616 1.375,1.375 z"
         id="path3943"
         inkscape:connector-curvature="0" />
      <path
         d="m 174.348,179.315 c 0,1.449 -1.176,2.625 -2.625,2.625 -1.45,0 -2.625,-1.176 -2.625,-2.625 0,-1.45 1.175,-2.625 2.625,-2.625 1.449,0 2.625,1.175 2.625,2.625 z"
         id="path3945"
         inkscape:connector-curvature="0" />
      <path
         d="m 185.806,201.363 c 0,1.262 -1.023,2.285 -2.286,2.285 h -0.762 c -1.262,0 -2.285,-1.023 -2.285,-2.285 v -0.762 c 0,-1.263 1.023,-2.286 2.285,-2.286 h 0.762 c 1.263,0 2.286,1.023 2.286,2.286 z"
         id="path3947"
         inkscape:connector-curvature="0" />
      <g
         id="g3957"
         style="stroke-width:10">
        <path
           d="m 226.598,239.975 c 0,2.203 -1.603,3.989 -3.58,3.989 h -27.744 c -1.977,0 -3.58,-1.786 -3.58,-3.989 v -28.92 c 0,-2.203 1.604,-3.989 3.58,-3.989 h 27.744 c 1.978,0 3.58,1.786 3.58,3.989 z"
           id="path3949"
           inkscape:connector-curvature="0" />
        <path
           d="m 174.075,230.002 c 0,2.203 1.786,3.989 3.989,3.989 h 18.615 c 2.203,0 3.989,-1.786 3.989,-3.989 v -11.303 c 0,-2.202 -1.786,-3.988 -3.989,-3.988 h -18.615 c -2.203,0 -3.989,1.786 -3.989,3.988 z"
           id="path3951"
           inkscape:connector-curvature="0" />
        <path
           d="m 166.098,230.002 c 0,-2.203 1.786,-3.989 3.989,-3.989 h 22.937 c 2.203,0 3.988,1.786 3.988,3.989 v 6.316 c 0,2.202 -1.785,3.988 -3.988,3.988 h -22.937 c -2.203,0 -3.989,-1.786 -3.989,-3.988 z"
           id="path3953"
           inkscape:connector-curvature="0" />
        <path
           d="m 213.301,236.317 c 0,2.203 1.786,3.989 3.989,3.989 h 18.615 c 2.203,0 3.989,-1.786 3.989,-3.989 v -11.302 c 0,-2.203 -1.786,-3.989 -3.989,-3.989 H 217.29 c -2.203,0 -3.989,1.786 -3.989,3.989 z"
           id="path3955"
           inkscape:connector-curvature="0" />
      </g>
    </g>
  </g>
</svg>
