<?xml version="1.0" encoding="UTF-8" standalone="no"?>
<svg
   xmlns:dc="http://purl.org/dc/elements/1.1/"
   xmlns:cc="http://creativecommons.org/ns#"
   xmlns:rdf="http://www.w3.org/1999/02/22-rdf-syntax-ns#"
   xmlns:svg="http://www.w3.org/2000/svg"
   xmlns="http://www.w3.org/2000/svg"
   xmlns:sodipodi="http://sodipodi.sourceforge.net/DTD/sodipodi-0.dtd"
   xmlns:inkscape="http://www.inkscape.org/namespaces/inkscape"
   viewBox="20 20 321 321"
   version="1.1"
   id="svg3867"
   sodipodi:docname="heating_mode-2.svg"
   inkscape:version="0.92.4 (5da689c313, 2019-01-14)">
  <metadata
     id="metadata3873">
    <rdf:RDF>
      <cc:Work
         rdf:about="">
        <dc:format>image/svg+xml</dc:format>
        <dc:type
           rdf:resource="http://purl.org/dc/dcmitype/StillImage" />
      </cc:Work>
    </rdf:RDF>
  </metadata>
  <defs
     id="defs3871" />
  <sodipodi:namedview
     pagecolor="#ffffff"
     bordercolor="#666666"
     borderopacity="1"
     objecttolerance="10"
     gridtolerance="10"
     guidetolerance="10"
     inkscape:pageopacity="0"
     inkscape:pageshadow="2"
     inkscape:window-width="885"
     inkscape:window-height="562"
     id="namedview3869"
     showgrid="false"
     inkscape:zoom="0.73520249"
     inkscape:cx="160.5"
     inkscape:cy="70.123458"
     inkscape:window-x="317"
     inkscape:window-y="160"
     inkscape:window-maximized="0"
     inkscape:current-layer="svg3867" />
  <g
     id="g3857"
     style="fill:#000000"
     transform="matrix(1.4426395,0,0,1.4426395,-79.393002,-78.929608)">
    <path
       d="m 180.744,155.583 -0.244,-81 106.801,81 z"
       id="path3849"
       inkscape:connector-curvature="0" />
    <path
       d="m 185.744,155.583 c -0.081,-27 -0.163,-54 -0.244,-81 -2.508,1.439 -5.016,2.878 -7.523,4.317 35.59,26.992 71.18,53.984 106.77,80.976 0.011,0.008 0.021,0.016 0.031,0.024 0.841,-3.106 1.683,-6.211 2.523,-9.317 -35.519,0 -71.038,0 -106.557,0 -6.449,0 -6.449,10 0,10 35.519,0 71.038,0 106.557,0 5.402,0 6.252,-6.489 2.523,-9.317 -35.59,-26.992 -71.18,-53.984 -106.77,-80.976 -0.011,-0.008 -0.021,-0.016 -0.031,-0.024 -3.125,-2.371 -7.534,0.868 -7.523,4.317 0.082,27 0.163,54 0.244,81 0.02,6.448 10.02,6.45 10,0 z"
       id="path3851"
       inkscape:connector-curvature="0" />
    <path
       d="M 180.256,155.583 180.5,74.584 73.699,155.583 Z"
       id="path3853"
       inkscape:connector-curvature="0" />
    <path
       d="m 185.256,155.583 c 0.081,-27 0.163,-54 0.244,-81 0.011,-3.45 -4.397,-6.688 -7.523,-4.317 -35.59,26.992 -71.18,53.984 -106.77,80.976 -0.011,0.008 -0.021,0.016 -0.031,0.023 -3.729,2.828 -2.879,9.317 2.523,9.317 35.519,0 71.038,0 106.557,0 6.448,0 6.448,-10 0,-10 -35.519,0 -71.038,0 -106.557,0 0.841,3.106 1.683,6.211 2.523,9.317 35.59,-26.992 71.18,-53.984 106.77,-80.976 0.011,-0.008 0.021,-0.016 0.031,-0.023 -2.508,-1.439 -5.016,-2.878 -7.523,-4.317 -0.082,27 -0.163,54 -0.244,81 -0.02,6.45 9.98,6.448 10,0 z"
       id="path3855"
       inkscape:connector-curvature="0" />
  </g>
  <path
     d="m 307.95608,323.54974 c 0,5.65397 -5.66535,10.23714 -12.65345,10.23714 H 67.666889 c -6.988131,0 -12.653377,-4.58317 -12.653377,-10.23714 V 136.89953 c 0,-5.65234 252.942568,-5.65234 252.942568,0 z"
     id="path3859"
     inkscape:connector-curvature="0"
     style="fill:none;stroke:#000000;stroke-width:14.42641068" />
  <g
     id="g3865"
     style="fill:#000000"
     transform="matrix(1.4426395,0,0,1.4426395,-79.393002,-78.929608)">
    <path
       d="m 192.175,191.473 c 6.965,0 16.049,-1.81 20.267,5.134 2.335,3.845 1.105,11.205 1.105,15.416 0,7.976 0,15.95 0,23.926 0,4.712 0.724,10.15 -0.465,14.771 -1.927,7.494 -10.185,6.65 -16.074,6.65 -7.771,0 -15.542,0 -23.313,0 -5.391,0 -10.782,0 -16.172,0 -8.018,0 -9.871,-6.822 -9.871,-13.264 0,-12.501 0,-25.002 0,-37.502 0,-5.509 -0.369,-10.682 5.133,-14.025 4.16,-2.527 11.862,-1.105 16.501,-1.105 4.514,0 4.514,-7 0,-7 -5.911,0 -13.397,-1.136 -18.887,1.509 -6.982,3.364 -9.747,9.838 -9.747,17.229 0,13.814 0,27.629 0,41.444 0,6.951 1.665,12.619 7.518,16.996 4.524,3.383 10.708,2.719 16.021,2.719 13.162,0 26.323,0 39.484,0 10.436,0 16.871,-8.496 16.871,-18.31 0,-9.515 0,-19.028 0,-28.543 0,-6.896 1.61,-16.819 -1.509,-23.296 -5.296,-10.995 -16.601,-9.748 -26.863,-9.748 -4.513,-10e-4 -4.513,6.999 0.001,6.999 z"
       id="path3861"
       inkscape:connector-curvature="0" />
    <path
       d="m 177.303,181.254 c 0,16.425 0,32.851 0,49.275 0,4.514 7,4.514 7,0 0,-16.425 0,-32.851 0,-49.275 0,-4.514 -7,-4.514 -7,0 z"
       id="path3863"
       inkscape:connector-curvature="0" />
  </g>
</svg>
