<?xml version="1.0" encoding="UTF-8" standalone="no"?>
<svg
   xmlns:dc="http://purl.org/dc/elements/1.1/"
   xmlns:cc="http://creativecommons.org/ns#"
   xmlns:rdf="http://www.w3.org/1999/02/22-rdf-syntax-ns#"
   xmlns:svg="http://www.w3.org/2000/svg"
   xmlns="http://www.w3.org/2000/svg"
   xmlns:sodipodi="http://sodipodi.sourceforge.net/DTD/sodipodi-0.dtd"
   xmlns:inkscape="http://www.inkscape.org/namespaces/inkscape"
   viewBox="20 20 321 321"
   version="1.1"
   id="svg3815"
   sodipodi:docname="heating_mode-1.svg"
   inkscape:version="0.92.4 (5da689c313, 2019-01-14)">
  <metadata
     id="metadata3821">
    <rdf:RDF>
      <cc:Work
         rdf:about="">
        <dc:format>image/svg+xml</dc:format>
        <dc:type
           rdf:resource="http://purl.org/dc/dcmitype/StillImage" />
      </cc:Work>
    </rdf:RDF>
  </metadata>
  <defs
     id="defs3819" />
  <sodipodi:namedview
     pagecolor="#ffffff"
     bordercolor="#666666"
     borderopacity="1"
     objecttolerance="10"
     gridtolerance="10"
     guidetolerance="10"
     inkscape:pageopacity="0"
     inkscape:pageshadow="2"
     inkscape:window-width="1048"
     inkscape:window-height="665"
     id="namedview3817"
     showgrid="false"
     inkscape:zoom="1"
     inkscape:cx="190"
     inkscape:cy="160.5"
     inkscape:window-x="140"
     inkscape:window-y="82"
     inkscape:window-maximized="0"
     inkscape:current-layer="svg3815" />
  <g
     id="g3785"
     style="fill:#000000"
     transform="matrix(1.4381594,0,0,1.4381594,-79.084399,-77.625783)">
    <path
       d="m 180.744,155.583 -0.244,-81 106.801,81 z"
       id="path3777"
       inkscape:connector-curvature="0" />
    <path
       d="m 185.744,155.583 c -0.081,-27 -0.163,-54 -0.244,-81 -2.508,1.439 -5.016,2.878 -7.523,4.317 35.59,26.992 71.18,53.984 106.77,80.976 0.011,0.008 0.021,0.016 0.031,0.024 0.841,-3.106 1.683,-6.211 2.523,-9.317 -35.519,0 -71.038,0 -106.557,0 -6.449,0 -6.449,10 0,10 35.519,0 71.038,0 106.557,0 5.402,0 6.252,-6.489 2.523,-9.317 -35.59,-26.992 -71.18,-53.984 -106.77,-80.976 -0.011,-0.008 -0.021,-0.016 -0.031,-0.024 -3.125,-2.371 -7.534,0.868 -7.523,4.317 0.082,27 0.163,54 0.244,81 0.02,6.448 10.02,6.45 10,0 z"
       id="path3779"
       inkscape:connector-curvature="0" />
    <path
       d="M 180.256,155.583 180.5,74.584 73.699,155.583 Z"
       id="path3781"
       inkscape:connector-curvature="0" />
    <path
       d="m 185.256,155.583 c 0.081,-27 0.163,-54 0.244,-81 0.011,-3.45 -4.397,-6.688 -7.523,-4.317 -35.59,26.992 -71.18,53.984 -106.77,80.976 -0.011,0.008 -0.021,0.016 -0.031,0.023 -3.729,2.828 -2.879,9.317 2.523,9.317 35.519,0 71.038,0 106.557,0 6.448,0 6.448,-10 0,-10 -35.519,0 -71.038,0 -106.557,0 0.841,3.106 1.683,6.211 2.523,9.317 35.59,-26.992 71.18,-53.984 106.77,-80.976 0.011,-0.008 0.021,-0.016 0.031,-0.023 -2.508,-1.439 -5.016,-2.878 -7.523,-4.317 -0.082,27 -0.163,54 -0.244,81 -0.02,6.45 9.98,6.448 10,0 z"
       id="path3783"
       inkscape:connector-curvature="0" />
  </g>
  <path
     d="m 307.06207,323.60382 c 0,5.63653 -5.64778,10.20546 -12.61418,10.20546 H 67.518897 c -6.966432,0 -12.614094,-4.56893 -12.614094,-10.20546 V 137.53325 c 0,-5.6349 252.157267,-5.6349 252.157267,0 z"
     id="path3787"
     inkscape:connector-curvature="0"
     style="fill:none;stroke:#000000;stroke-width:14.38161945" />
  <g
     id="g3801"
     style="fill:#000000"
     transform="matrix(1.4381594,0,0,1.4381594,-79.084399,-77.625783)">
    <path
       d="m 133.798,268.374 c -3.822,0 -7.645,0 -11.467,0 -4.514,0 -4.514,7 0,7 3.822,0 7.645,0 11.467,0 4.515,0 4.515,-7 0,-7 z"
       id="path3789"
       inkscape:connector-curvature="0" />
    <path
       d="m 132.507,202.423 c -2.271,8.048 -4.543,16.096 -6.815,24.143 -1.229,4.354 5.525,6.198 6.75,1.861 2.271,-8.048 4.543,-16.096 6.815,-24.143 1.229,-4.353 -5.526,-6.198 -6.75,-1.861 z"
       id="path3791"
       inkscape:connector-curvature="0" />
    <path
       d="m 124.902,193.538 c 0,26.14 0,52.28 0,78.42 0,4.514 7,4.514 7,0 0,-26.14 0,-52.28 0,-78.42 0,-4.514 -7,-4.514 -7,0 z"
       id="path3793"
       inkscape:connector-curvature="0" />
    <path
       d="m 104.39,182.562 c 7.303,4.554 14.605,9.108 21.908,13.662 1.031,0.643 2.502,0.643 3.533,0 7.303,-4.554 14.605,-9.108 21.908,-13.662 2.918,-1.819 1.786,-6.522 -1.767,-6.522 -14.605,0 -29.21,0 -43.815,0 -4.514,0 -4.514,7 0,7 14.605,0 29.21,0 43.815,0 -0.589,-2.173 -1.178,-4.348 -1.767,-6.521 -7.302,4.554 -14.605,9.107 -21.908,13.661 1.178,0 2.355,0 3.533,0 -7.303,-4.554 -14.605,-9.107 -21.908,-13.661 -3.841,-2.397 -7.352,3.66 -3.532,6.043 z"
       id="path3795"
       inkscape:connector-curvature="0" />
    <path
       d="m 148.364,211.053 c -3.343,-3.289 -6.686,-6.578 -10.028,-9.867 -3.219,-3.168 -8.171,1.779 -4.95,4.949 3.343,3.289 6.686,6.578 10.028,9.867 3.219,3.168 8.171,-1.779 4.95,-4.949 z"
       id="path3797"
       inkscape:connector-curvature="0" />
    <path
       d="m 151.492,211.224 c -2.318,-1.316 -4.636,-2.633 -6.954,-3.949 -1.371,-0.778 -3.119,-0.575 -4.242,0.548 -1.216,1.216 -1.177,2.769 -0.547,4.241 1.048,2.45 2.096,4.901 3.144,7.352 0.939,2.197 3.993,2.051 5.497,0.708 1.27,-1.134 2.54,-2.268 3.81,-3.402 1.423,-1.271 1.291,-3.658 0,-4.949 -1.406,-1.405 -3.528,-1.27 -4.95,0 -1.27,1.134 -2.54,2.268 -3.81,3.402 1.833,0.236 3.665,0.472 5.497,0.708 -1.048,-2.45 -2.096,-4.901 -3.144,-7.352 -1.596,1.597 -3.192,3.192 -4.789,4.789 2.318,1.316 4.636,2.633 6.954,3.949 3.932,2.232 7.458,-3.817 3.534,-6.045 z"
       id="path3799"
       inkscape:connector-curvature="0" />
  </g>
  <g
     id="g3807"
     style="fill:none;stroke:#000000;stroke-width:10"
     transform="matrix(1.4381594,0,0,1.4381594,-79.084399,-77.625783)">
    <path
       d="M 248.682,223.715 H 235.29 c -2.048,0 -3.708,2.132 -3.708,4.762 l 0.001,7.065 -48.843,0.125 v -7.19 c 0,-2.63 -1.66,-4.762 -3.708,-4.762 h -13.391 c -2.047,0 -3.708,2.132 -3.708,4.762 v 12.43 c 0,2.629 1.66,4.761 3.708,4.761 h 6.584 v 10.942 c 0,4.636 2.927,8.393 6.538,8.393 h 56.573 c 3.61,0 6.538,-3.757 6.538,-8.393 v -10.942 h 6.807 c 2.047,0 3.707,-2.132 3.707,-4.761 v -12.43 c 0.001,-2.63 -1.659,-4.762 -3.706,-4.762 z"
       id="path3803"
       inkscape:connector-curvature="0" />
    <path
       d="m 233.12,215.872 c 0,-0.11 -0.003,-17.265 -0.007,-17.375 -0.146,-3.525 -2.615,-6.332 -5.64,-6.332 h -41.327 c -3.119,0 -5.646,2.983 -5.646,6.665 v 17.042"
       id="path3805"
       inkscape:connector-curvature="0" />
  </g>
  <g
     id="g3813"
     style="fill:#000000"
     transform="matrix(1.4381594,0,0,1.4381594,-79.084399,-77.625783)">
    <path
       d="m 178.333,266.945 c 0,0.8 0,1.601 0,2.4 0,2.726 2.274,5 5,5 2.726,0 5,-2.274 5,-5 0,-0.8 0,-1.601 0,-2.4 0,-2.726 -2.274,-5 -5,-5 -2.726,0 -5,2.275 -5,5 z"
       id="path3809"
       inkscape:connector-curvature="0" />
    <path
       d="m 225.833,266.945 c 0,0.8 0,1.601 0,2.4 0,2.726 2.274,5 5,5 2.726,0 5,-2.274 5,-5 0,-0.8 0,-1.601 0,-2.4 0,-2.726 -2.274,-5 -5,-5 -2.726,0 -5,2.275 -5,5 z"
       id="path3811"
       inkscape:connector-curvature="0" />
  </g>
</svg>
